<?xml version="1.0" encoding="UTF-8" standalone="no"?><!DOCTYPE svg PUBLIC "-//W3C//DTD SVG 1.1//EN" "http://www.w3.org/Graphics/SVG/1.1/DTD/svg11.dtd">
<svg width="100%" height="100%" viewBox="0.24 0.24 6.72 6.72" version="1.1" xmlns="http://www.w3.org/2000/svg" xmlns:xlink="http://www.w3.org/1999/xlink" xml:space="preserve" xmlns:serif="http://www.serif.com/" style="fill-rule:evenodd;clip-rule:evenodd;stroke-linejoin:round;stroke-miterlimit:1.41421;">
<g id="standard">
<path d="M3.6,0.24l0.346,1.176l0.34,0.074l0.318,0.139l0.971,-0.747l-0.411,1.154l0.231,0.26l0.176,0.3l1.225,-0.034l-1.012,0.692l0.035,0.346l-0.035,0.346l1.012,0.692l-1.225,-0.034l-0.176,0.3l-0.231,0.26l0.411,1.154l-0.971,-0.747l-0.318,0.139l-0.34,0.074l-0.346,1.176l-0.346,-1.176l-0.34,-0.074l-0.318,-0.139l-0.971,0.747l0.411,-1.154l-0.231,-0.26l-0.176,-0.3l-1.225,0.034l1.012,-0.692l-0.035,-0.346l0.035,-0.346l-1.012,-0.692l1.225,0.034l0.176,-0.3l0.231,-0.26l-0.411,-1.154l0.971,0.747l0.318,-0.139l0.34,-0.074l0.346,-1.176Z" style="fill:#181818;"/>
</g>
</svg>
