<?xml version="1.0" encoding="UTF-8" standalone="no"?><!DOCTYPE svg PUBLIC "-//W3C//DTD SVG 1.1//EN" "http://www.w3.org/Graphics/SVG/1.1/DTD/svg11.dtd"><svg width="100%" height="100%" viewBox="0 0 4 4" version="1.1" xmlns="http://www.w3.org/2000/svg" xmlns:xlink="http://www.w3.org/1999/xlink" xml:space="preserve" xmlns:serif="http://www.serif.com/" style="fill-rule:evenodd;clip-rule:evenodd;stroke-linecap:round;stroke-linejoin:round;stroke-miterlimit:1.5;"><path d="M2.982,0.444c0,-0.082 -0.066,-0.149 -0.148,-0.149l-1.828,0c-0.082,0 -0.148,0.067 -0.148,0.149l0,2.952c0,0.001 0,0.001 0,0.002c0,0.049 0.028,0.093 0.071,0.115c0.044,0.022 0.096,0.018 0.136,-0.011c0.201,-0.146 0.855,-0.622 0.855,-0.622c0,0 0.654,0.476 0.855,0.622c0.04,0.029 0.092,0.033 0.136,0.011c0.043,-0.022 0.071,-0.066 0.071,-0.115c0,-0.001 0,-0.001 0,-0.002l0,-2.952Z" style="fill:#3f96e6;stroke:#3f96e6;stroke-width:0.04px;"/></svg>