<?xml version="1.0" encoding="UTF-8" standalone="no"?>
<!DOCTYPE svg PUBLIC "-//W3C//DTD SVG 1.1//EN" "http://www.w3.org/Graphics/SVG/1.1/DTD/svg11.dtd">
<svg width="100%" height="100%" viewBox="0 0 8 8" version="1.1" xmlns="http://www.w3.org/2000/svg" xmlns:xlink="http://www.w3.org/1999/xlink" xml:space="preserve" xmlns:serif="http://www.serif.com/" style="fill-rule:evenodd;clip-rule:evenodd;stroke-linejoin:round;stroke-miterlimit:1.41421;">
<g id="diag"><path id="bg" d="M6.901,4.279c0.375,-0.375 0.375,-0.983 0,-1.358c-0.732,-0.732 -1.89,-1.89 -2.622,-2.622c-0.375,-0.375 -0.983,-0.375 -1.358,0c-0.732,0.732 -1.89,1.89 -2.622,2.622c-0.375,0.375 -0.375,0.983 0,1.358c0.732,0.732 1.89,1.89 2.622,2.622c0.375,0.375 0.983,0.375 1.358,0c0.732,-0.732 1.89,-1.89 2.622,-2.622Z" style="fill:#F03E2D;"/><path id="arrow" d="M3.6,0.682l2.918,2.918l-2.347,-0.529l-0.571,-2.389Z" style="fill:#fff;"/></g></svg>