<?xml version="1.0" encoding="UTF-8" standalone="no"?>
<!DOCTYPE svg PUBLIC "-//W3C//DTD SVG 1.1//EN" "http://www.w3.org/Graphics/SVG/1.1/DTD/svg11.dtd">
<svg width="100%" height="100%" viewBox="2.5 2.5 25 25" version="1.1" xmlns="http://www.w3.org/2000/svg" xmlns:xlink="http://www.w3.org/1999/xlink" xml:space="preserve" xmlns:serif="http://www.serif.com/" style="fill-rule:evenodd;clip-rule:evenodd;stroke-linejoin:round;stroke-miterlimit:1.41421;">
    <g id="dot">
        <!-- <path id="bg" d="M27.5,5.833c0,-0.883 -0.351,-1.731 -0.976,-2.356c-0.626,-0.625 -1.473,-0.977 -2.357,-0.977l-18.334,0c-0.883,0 -1.732,0.352 -2.357,0.977c-0.625,0.625 -0.976,1.473 -0.976,2.356l0,18.334c0,0.884 0.351,1.731 0.976,2.356c0.625,0.625 1.474,0.977 2.357,0.977l18.334,0c0.884,0 1.731,-0.352 2.357,-0.977c0.625,-0.625 0.976,-1.472 0.976,-2.356l0,-18.334Z" style="fill:#3f96e6;"/> -->
        <ellipse id="dot1" serif:id="dot" cx="15" cy="14.999" rx="4.167" ry="4.166" style="fill:#fff;"/>
    </g>
</svg>
