<?xml version="1.0" encoding="UTF-8" standalone="no"?><!DOCTYPE svg PUBLIC "-//W3C//DTD SVG 1.1//EN" "http://www.w3.org/Graphics/SVG/1.1/DTD/svg11.dtd"><svg width="100%" height="100%" viewBox="0 0 8 8" version="1.1" xmlns="http://www.w3.org/2000/svg" xmlns:xlink="http://www.w3.org/1999/xlink" xml:space="preserve" xmlns:serif="http://www.serif.com/" style="fill-rule:evenodd;clip-rule:evenodd;stroke-linecap:round;stroke-linejoin:round;stroke-miterlimit:1.5;"><path d="M3.782,0.983c0.045,-0.079 0.128,-0.126 0.218,-0.126c0.09,0 0.173,0.047 0.218,0.126c0.668,1.154 2.679,4.625 3.348,5.781c0.045,0.079 0.045,0.175 0,0.253c-0.045,0.079 -0.129,0.126 -0.219,0.126l-6.694,0c-0.09,0 -0.174,-0.047 -0.219,-0.126c-0.045,-0.078 -0.045,-0.174 0,-0.253c0.669,-1.156 2.68,-4.627 3.348,-5.781Z" style="fill:none;stroke:#000;stroke-width:0.72px;"/><path d="M3.782,0.983c0.045,-0.079 0.128,-0.126 0.218,-0.126c0.09,0 0.173,0.047 0.218,0.126c0.668,1.154 2.679,4.625 3.348,5.781c0.045,0.079 0.045,0.175 0,0.253c-0.045,0.079 -0.129,0.126 -0.219,0.126l-6.694,0c-0.09,0 -0.174,-0.047 -0.219,-0.126c-0.045,-0.078 -0.045,-0.174 0,-0.253c0.669,-1.156 2.68,-4.627 3.348,-5.781Z" style="fill:#f63030;"/><path d="M4.234,5.086c0,0.017 -0.004,0.032 -0.011,0.045c-0.008,0.012 -0.021,0.023 -0.04,0.031c-0.019,0.009 -0.043,0.015 -0.072,0.019c-0.03,0.004 -0.067,0.007 -0.111,0.007c-0.044,0 -0.081,-0.003 -0.111,-0.007c-0.029,-0.004 -0.053,-0.01 -0.072,-0.019c-0.019,-0.008 -0.032,-0.019 -0.04,-0.031c-0.007,-0.013 -0.011,-0.028 -0.011,-0.045l-0.054,-3.015c-0.002,-0.025 0.001,-0.047 0.01,-0.066c0.008,-0.019 0.024,-0.035 0.046,-0.048c0.022,-0.012 0.051,-0.021 0.088,-0.026c0.037,-0.006 0.085,-0.008 0.144,-0.008c0.057,0 0.104,0.003 0.141,0.009c0.037,0.007 0.066,0.016 0.088,0.029c0.022,0.012 0.038,0.028 0.046,0.045c0.008,0.018 0.013,0.04 0.013,0.065l-0.054,3.015Zm0.098,0.851c0,0.069 -0.005,0.127 -0.014,0.172c-0.01,0.045 -0.028,0.082 -0.054,0.11c-0.026,0.029 -0.061,0.049 -0.103,0.061c-0.042,0.011 -0.096,0.017 -0.161,0.017c-0.065,0 -0.12,-0.006 -0.163,-0.017c-0.043,-0.012 -0.077,-0.032 -0.102,-0.061c-0.026,-0.028 -0.043,-0.065 -0.053,-0.11c-0.009,-0.045 -0.014,-0.103 -0.014,-0.172c0,-0.07 0.005,-0.128 0.014,-0.176c0.01,-0.047 0.027,-0.084 0.053,-0.11c0.025,-0.027 0.059,-0.046 0.102,-0.057c0.043,-0.012 0.098,-0.018 0.163,-0.018c0.065,0 0.119,0.006 0.161,0.018c0.042,0.011 0.077,0.03 0.103,0.057c0.026,0.026 0.044,0.063 0.054,0.11c0.009,0.048 0.014,0.106 0.014,0.176Z" style="fill-rule:nonzero;"/></svg>