<?xml version="1.0" encoding="UTF-8" standalone="no"?><!DOCTYPE svg PUBLIC "-//W3C//DTD SVG 1.1//EN" "http://www.w3.org/Graphics/SVG/1.1/DTD/svg11.dtd"><svg width="100%" height="100%" viewBox="0 0 8 8" version="1.1" xmlns="http://www.w3.org/2000/svg" xmlns:xlink="http://www.w3.org/1999/xlink" xml:space="preserve" xmlns:serif="http://www.serif.com/" style="fill-rule:evenodd;clip-rule:evenodd;stroke-linecap:round;stroke-linejoin:round;stroke-miterlimit:1.5;"><circle cx="4" cy="4" r="3.5" style="fill:none;stroke:#000;stroke-width:0.82px;"/><circle cx="4" cy="4" r="3.5" style="fill:#18cb83;"/><path d="M2.32,4.836c0,-0.052 -0.007,-0.098 -0.02,-0.137c0,-0.118 0.079,-0.223 0.236,-0.315c0.105,-0.052 0.183,-0.078 0.236,-0.078c0.065,0.013 0.111,0.052 0.137,0.118c0.079,0.183 0.131,0.308 0.157,0.373c0.027,0.053 0.053,0.079 0.079,0.079c0.026,0 0.053,-0.02 0.079,-0.059c0.445,-0.786 0.845,-1.396 1.199,-1.828c0.275,-0.327 0.445,-0.517 0.511,-0.57c0.209,-0.157 0.458,-0.242 0.746,-0.255l0.02,0.098c-0.223,0.223 -0.609,0.721 -1.16,1.494c-0.537,0.773 -0.923,1.382 -1.159,1.827c-0.052,0.118 -0.118,0.19 -0.197,0.216c-0.039,0.04 -0.124,0.053 -0.255,0.04c-0.092,0.013 -0.157,0 -0.197,-0.04c-0.039,-0.026 -0.078,-0.078 -0.118,-0.157c-0.131,-0.314 -0.229,-0.583 -0.294,-0.806Z" style="fill-rule:nonzero;"/></svg>